<svg xmlns="http://www.w3.org/2000/svg" xmlns:xlink="http://www.w3.org/1999/xlink" width="48" zoomAndPan="magnify" viewBox="0 0 36 36.000001" height="48" preserveAspectRatio="xMidYMid meet" version="1.0"><defs><clipPath id="d73ca90640"><path d="M 0.8125 1.207031 L 35.113281 1.207031 L 35.113281 34 L 0.8125 34 Z M 0.8125 1.207031 " clip-rule="nonzero"/></clipPath></defs><g clip-path="url(#d73ca90640)"><path fill="#3b82f6" d="M 4.953125 28.023438 C 3.867188 28.023438 2.863281 27.441406 2.320312 26.515625 L 1.335938 24.769531 C 0.933594 24.085938 0.8125 23.261719 1.035156 22.480469 C 1.234375 21.695312 1.738281 21.03125 2.441406 20.632812 L 4.308594 19.546875 C 7.742188 16.835938 9.550781 13.339844 11.320312 9.121094 L 20.878906 25.671875 C 19.050781 25.453125 17.265625 25.269531 15.476562 25.269531 C 14.230469 25.269531 13.066406 25.351562 11.960938 25.53125 C 12.203125 26.757812 11.699219 28.042969 10.636719 28.765625 L 11.578125 30.414062 C 11.882812 30.933594 11.960938 31.539062 11.800781 32.121094 C 11.640625 32.703125 11.257812 33.183594 10.738281 33.484375 C 10.394531 33.6875 9.992188 33.808594 9.589844 33.808594 C 8.789062 33.808594 8.046875 33.363281 7.644531 32.683594 Z M 34.375 17.097656 L 24.617188 17.097656 C 24.171875 17.097656 23.8125 16.734375 23.8125 16.292969 C 23.8125 15.832031 24.171875 15.488281 24.617188 15.488281 L 34.375 15.488281 C 34.820312 15.488281 35.179688 15.832031 35.179688 16.292969 C 35.179688 16.734375 34.820312 17.097656 34.375 17.097656 Z M 22.40625 14.566406 C 22.125 14.566406 21.863281 14.425781 21.703125 14.164062 C 21.480469 13.78125 21.621094 13.300781 22.003906 13.078125 L 30.460938 8.179688 C 30.839844 7.957031 31.34375 8.097656 31.566406 8.480469 C 31.785156 8.859375 31.644531 9.363281 31.261719 9.585938 L 22.808594 14.464844 C 22.6875 14.523438 22.546875 14.566406 22.40625 14.566406 Z M 21.320312 11.390625 C 21.179688 11.390625 21.058594 11.351562 20.917969 11.292969 C 20.539062 11.070312 20.417969 10.570312 20.636719 10.1875 L 25.519531 1.730469 C 25.738281 1.347656 26.222656 1.207031 26.605469 1.429688 C 27.003906 1.652344 27.125 2.152344 26.90625 2.535156 L 22.023438 10.992188 C 21.863281 11.25 21.601562 11.390625 21.320312 11.390625 Z M 10.375 25.875 C 9.972656 25.972656 9.570312 26.09375 9.167969 26.234375 L 9.832031 27.378906 C 10.273438 27 10.476562 26.4375 10.375 25.875 Z M 23.8125 26.675781 C 22.929688 26.675781 22.105469 26.195312 21.664062 25.429688 L 11.921875 8.578125 C 11.601562 7.996094 11.519531 7.335938 11.679688 6.691406 C 11.859375 6.050781 12.261719 5.507812 12.84375 5.1875 C 13.207031 4.964844 13.648438 4.84375 14.070312 4.84375 C 14.972656 4.84375 15.796875 5.328125 16.238281 6.089844 L 25.960938 22.941406 C 26.300781 23.523438 26.382812 24.1875 26.203125 24.828125 C 26.042969 25.472656 25.621094 26.015625 25.058594 26.335938 C 24.675781 26.554688 24.253906 26.675781 23.8125 26.675781 Z M 23.8125 26.675781 " fill-opacity="1" fill-rule="evenodd"/></g></svg>